<mxfile host="app.diagrams.net" agent="Mozilla/5.0 (Windows NT 10.0; Win64; x64) AppleWebKit/537.36 (KHTML, like Gecko) Chrome/128.0.0.0 Safari/537.36 OPR/114.0.0.0" version="24.8.0">
  <diagram name="Página-1" id="OG0YQX7MiFhudg68uAaz">
    <mxGraphModel dx="2207" dy="746" grid="1" gridSize="10" guides="1" tooltips="1" connect="1" arrows="1" fold="1" page="1" pageScale="1" pageWidth="827" pageHeight="1169" math="0" shadow="0">
      <root>
        <mxCell id="0" />
        <mxCell id="1" parent="0" />
        <mxCell id="a1HbDaqU0d2U6ycPriEB-9" style="edgeStyle=orthogonalEdgeStyle;rounded=0;orthogonalLoop=1;jettySize=auto;html=1;entryX=0.5;entryY=0;entryDx=0;entryDy=0;" edge="1" parent="1" source="a1HbDaqU0d2U6ycPriEB-2" target="a1HbDaqU0d2U6ycPriEB-7">
          <mxGeometry relative="1" as="geometry" />
        </mxCell>
        <mxCell id="a1HbDaqU0d2U6ycPriEB-2" value="&lt;b&gt;USUARIO ACESSAO O CHAT&lt;/b&gt;" style="rounded=0;whiteSpace=wrap;html=1;fillColor=#008a00;strokeColor=#005700;fontColor=#ffffff;" vertex="1" parent="1">
          <mxGeometry x="354" width="120" height="60" as="geometry" />
        </mxCell>
        <mxCell id="a1HbDaqU0d2U6ycPriEB-22" style="edgeStyle=orthogonalEdgeStyle;rounded=0;orthogonalLoop=1;jettySize=auto;html=1;exitX=0.5;exitY=1;exitDx=0;exitDy=0;" edge="1" parent="1" source="a1HbDaqU0d2U6ycPriEB-3">
          <mxGeometry relative="1" as="geometry">
            <mxPoint x="230" y="350" as="targetPoint" />
          </mxGeometry>
        </mxCell>
        <mxCell id="a1HbDaqU0d2U6ycPriEB-3" value="&lt;b&gt;CLIENTE&lt;/b&gt;" style="rounded=0;whiteSpace=wrap;html=1;fillColor=#008a00;fontColor=#ffffff;strokeColor=#005700;" vertex="1" parent="1">
          <mxGeometry x="170" y="220" width="120" height="60" as="geometry" />
        </mxCell>
        <mxCell id="a1HbDaqU0d2U6ycPriEB-6" value="NOVO CLIENTE" style="rounded=0;whiteSpace=wrap;html=1;fillColor=#008a00;fontColor=#ffffff;strokeColor=#005700;fontStyle=1" vertex="1" parent="1">
          <mxGeometry x="530" y="220" width="120" height="60" as="geometry" />
        </mxCell>
        <mxCell id="a1HbDaqU0d2U6ycPriEB-10" style="edgeStyle=orthogonalEdgeStyle;rounded=0;orthogonalLoop=1;jettySize=auto;html=1;entryX=0.5;entryY=0;entryDx=0;entryDy=0;" edge="1" parent="1" source="a1HbDaqU0d2U6ycPriEB-7" target="a1HbDaqU0d2U6ycPriEB-3">
          <mxGeometry relative="1" as="geometry" />
        </mxCell>
        <mxCell id="a1HbDaqU0d2U6ycPriEB-11" style="edgeStyle=orthogonalEdgeStyle;rounded=0;orthogonalLoop=1;jettySize=auto;html=1;entryX=0.5;entryY=0;entryDx=0;entryDy=0;" edge="1" parent="1" source="a1HbDaqU0d2U6ycPriEB-7" target="a1HbDaqU0d2U6ycPriEB-6">
          <mxGeometry relative="1" as="geometry" />
        </mxCell>
        <mxCell id="a1HbDaqU0d2U6ycPriEB-7" value="&lt;b&gt;IDENTIFICAÇAO&lt;/b&gt;" style="rounded=0;whiteSpace=wrap;html=1;fillColor=#008a00;fontColor=#ffffff;strokeColor=#005700;" vertex="1" parent="1">
          <mxGeometry x="354" y="90" width="120" height="60" as="geometry" />
        </mxCell>
        <mxCell id="a1HbDaqU0d2U6ycPriEB-12" value="" style="shape=table;startSize=0;container=1;collapsible=0;childLayout=tableLayout;fontSize=11;fillColor=#008a00;strokeColor=#005700;fontColor=#FFFFFF;fontStyle=1" vertex="1" parent="1">
          <mxGeometry x="145" y="360" width="170" height="120" as="geometry" />
        </mxCell>
        <mxCell id="a1HbDaqU0d2U6ycPriEB-13" value="" style="shape=tableRow;horizontal=0;startSize=0;swimlaneHead=0;swimlaneBody=0;strokeColor=inherit;top=0;left=0;bottom=0;right=0;collapsible=0;dropTarget=0;fillColor=none;points=[[0,0.5],[1,0.5]];portConstraint=eastwest;fontSize=16;" vertex="1" parent="a1HbDaqU0d2U6ycPriEB-12">
          <mxGeometry width="170" height="30" as="geometry" />
        </mxCell>
        <mxCell id="a1HbDaqU0d2U6ycPriEB-14" value="FINANCEIRO" style="shape=partialRectangle;html=1;whiteSpace=wrap;connectable=0;strokeColor=inherit;overflow=hidden;fillColor=none;top=0;left=0;bottom=0;right=0;pointerEvents=1;fontSize=12;align=left;spacingLeft=5;fontStyle=1;fontColor=#FFFFFF;" vertex="1" parent="a1HbDaqU0d2U6ycPriEB-13">
          <mxGeometry width="170" height="30" as="geometry">
            <mxRectangle width="170" height="30" as="alternateBounds" />
          </mxGeometry>
        </mxCell>
        <mxCell id="a1HbDaqU0d2U6ycPriEB-15" value="" style="shape=tableRow;horizontal=0;startSize=0;swimlaneHead=0;swimlaneBody=0;strokeColor=inherit;top=0;left=0;bottom=0;right=0;collapsible=0;dropTarget=0;fillColor=none;points=[[0,0.5],[1,0.5]];portConstraint=eastwest;fontSize=16;" vertex="1" parent="a1HbDaqU0d2U6ycPriEB-12">
          <mxGeometry y="30" width="170" height="30" as="geometry" />
        </mxCell>
        <mxCell id="a1HbDaqU0d2U6ycPriEB-16" value="&lt;font color=&quot;#ffffff&quot;&gt;&lt;b&gt;SUPORTE&lt;/b&gt;&lt;/font&gt;" style="shape=partialRectangle;html=1;whiteSpace=wrap;connectable=0;strokeColor=inherit;overflow=hidden;fillColor=none;top=0;left=0;bottom=0;right=0;pointerEvents=1;fontSize=12;align=left;spacingLeft=5;" vertex="1" parent="a1HbDaqU0d2U6ycPriEB-15">
          <mxGeometry width="170" height="30" as="geometry">
            <mxRectangle width="170" height="30" as="alternateBounds" />
          </mxGeometry>
        </mxCell>
        <mxCell id="a1HbDaqU0d2U6ycPriEB-17" value="" style="shape=tableRow;horizontal=0;startSize=0;swimlaneHead=0;swimlaneBody=0;strokeColor=inherit;top=0;left=0;bottom=0;right=0;collapsible=0;dropTarget=0;fillColor=none;points=[[0,0.5],[1,0.5]];portConstraint=eastwest;fontSize=16;" vertex="1" parent="a1HbDaqU0d2U6ycPriEB-12">
          <mxGeometry y="60" width="170" height="30" as="geometry" />
        </mxCell>
        <mxCell id="a1HbDaqU0d2U6ycPriEB-18" value="&lt;b&gt;&lt;font color=&quot;#ffffff&quot;&gt;COMERCIAL&lt;/font&gt;&lt;/b&gt;" style="shape=partialRectangle;html=1;whiteSpace=wrap;connectable=0;strokeColor=inherit;overflow=hidden;fillColor=none;top=0;left=0;bottom=0;right=0;pointerEvents=1;fontSize=12;align=left;spacingLeft=5;" vertex="1" parent="a1HbDaqU0d2U6ycPriEB-17">
          <mxGeometry width="170" height="30" as="geometry">
            <mxRectangle width="170" height="30" as="alternateBounds" />
          </mxGeometry>
        </mxCell>
        <mxCell id="a1HbDaqU0d2U6ycPriEB-19" style="shape=tableRow;horizontal=0;startSize=0;swimlaneHead=0;swimlaneBody=0;strokeColor=inherit;top=0;left=0;bottom=0;right=0;collapsible=0;dropTarget=0;fillColor=none;points=[[0,0.5],[1,0.5]];portConstraint=eastwest;fontSize=16;" vertex="1" parent="a1HbDaqU0d2U6ycPriEB-12">
          <mxGeometry y="90" width="170" height="30" as="geometry" />
        </mxCell>
        <mxCell id="a1HbDaqU0d2U6ycPriEB-20" value="&lt;b&gt;&lt;font color=&quot;#ffffff&quot;&gt;FALAR COM ATENDENTE&lt;/font&gt;&lt;/b&gt;" style="shape=partialRectangle;html=1;whiteSpace=wrap;connectable=0;strokeColor=inherit;overflow=hidden;fillColor=none;top=0;left=0;bottom=0;right=0;pointerEvents=1;fontSize=12;align=left;spacingLeft=5;" vertex="1" parent="a1HbDaqU0d2U6ycPriEB-19">
          <mxGeometry width="170" height="30" as="geometry">
            <mxRectangle width="170" height="30" as="alternateBounds" />
          </mxGeometry>
        </mxCell>
        <mxCell id="a1HbDaqU0d2U6ycPriEB-23" value="" style="shape=table;startSize=0;container=1;collapsible=0;childLayout=tableLayout;fontSize=11;fillColor=#008a00;strokeColor=#005700;fontColor=#ffffff;" vertex="1" parent="1">
          <mxGeometry x="-140" y="120" width="215" height="120" as="geometry" />
        </mxCell>
        <mxCell id="a1HbDaqU0d2U6ycPriEB-24" value="" style="shape=tableRow;horizontal=0;startSize=0;swimlaneHead=0;swimlaneBody=0;strokeColor=inherit;top=0;left=0;bottom=0;right=0;collapsible=0;dropTarget=0;fillColor=none;points=[[0,0.5],[1,0.5]];portConstraint=eastwest;fontSize=16;" vertex="1" parent="a1HbDaqU0d2U6ycPriEB-23">
          <mxGeometry width="215" height="30" as="geometry" />
        </mxCell>
        <mxCell id="a1HbDaqU0d2U6ycPriEB-25" value="&lt;b&gt;&lt;font color=&quot;#ffffff&quot;&gt;CONSULTA&amp;nbsp; E GERAR BOLETO&lt;/font&gt;&lt;/b&gt;" style="shape=partialRectangle;html=1;whiteSpace=wrap;connectable=0;strokeColor=inherit;overflow=hidden;fillColor=none;top=0;left=0;bottom=0;right=0;pointerEvents=1;fontSize=12;align=left;spacingLeft=5;" vertex="1" parent="a1HbDaqU0d2U6ycPriEB-24">
          <mxGeometry width="215" height="30" as="geometry">
            <mxRectangle width="215" height="30" as="alternateBounds" />
          </mxGeometry>
        </mxCell>
        <mxCell id="a1HbDaqU0d2U6ycPriEB-26" value="" style="shape=tableRow;horizontal=0;startSize=0;swimlaneHead=0;swimlaneBody=0;strokeColor=inherit;top=0;left=0;bottom=0;right=0;collapsible=0;dropTarget=0;fillColor=none;points=[[0,0.5],[1,0.5]];portConstraint=eastwest;fontSize=16;" vertex="1" parent="a1HbDaqU0d2U6ycPriEB-23">
          <mxGeometry y="30" width="215" height="30" as="geometry" />
        </mxCell>
        <mxCell id="a1HbDaqU0d2U6ycPriEB-27" value="&lt;b&gt;&lt;font color=&quot;#ffffff&quot;&gt;CONSULTA DE FATURAMENTO&lt;/font&gt;&lt;/b&gt;" style="shape=partialRectangle;html=1;whiteSpace=wrap;connectable=0;strokeColor=inherit;overflow=hidden;fillColor=none;top=0;left=0;bottom=0;right=0;pointerEvents=1;fontSize=12;align=left;spacingLeft=5;" vertex="1" parent="a1HbDaqU0d2U6ycPriEB-26">
          <mxGeometry width="215" height="30" as="geometry">
            <mxRectangle width="215" height="30" as="alternateBounds" />
          </mxGeometry>
        </mxCell>
        <mxCell id="a1HbDaqU0d2U6ycPriEB-28" value="" style="shape=tableRow;horizontal=0;startSize=0;swimlaneHead=0;swimlaneBody=0;strokeColor=inherit;top=0;left=0;bottom=0;right=0;collapsible=0;dropTarget=0;fillColor=none;points=[[0,0.5],[1,0.5]];portConstraint=eastwest;fontSize=16;" vertex="1" parent="a1HbDaqU0d2U6ycPriEB-23">
          <mxGeometry y="60" width="215" height="30" as="geometry" />
        </mxCell>
        <mxCell id="a1HbDaqU0d2U6ycPriEB-29" value="&lt;font color=&quot;#ffffff&quot;&gt;&lt;b&gt;SOLICITAR NFs&lt;/b&gt;&lt;/font&gt;" style="shape=partialRectangle;html=1;whiteSpace=wrap;connectable=0;strokeColor=inherit;overflow=hidden;fillColor=none;top=0;left=0;bottom=0;right=0;pointerEvents=1;fontSize=12;align=left;spacingLeft=5;" vertex="1" parent="a1HbDaqU0d2U6ycPriEB-28">
          <mxGeometry width="215" height="30" as="geometry">
            <mxRectangle width="215" height="30" as="alternateBounds" />
          </mxGeometry>
        </mxCell>
        <mxCell id="a1HbDaqU0d2U6ycPriEB-30" style="shape=tableRow;horizontal=0;startSize=0;swimlaneHead=0;swimlaneBody=0;strokeColor=inherit;top=0;left=0;bottom=0;right=0;collapsible=0;dropTarget=0;fillColor=none;points=[[0,0.5],[1,0.5]];portConstraint=eastwest;fontSize=16;" vertex="1" parent="a1HbDaqU0d2U6ycPriEB-23">
          <mxGeometry y="90" width="215" height="30" as="geometry" />
        </mxCell>
        <mxCell id="a1HbDaqU0d2U6ycPriEB-31" value="&lt;font color=&quot;#ffffff&quot;&gt;&lt;b&gt;RENEGOCIAÇAO&lt;/b&gt;&lt;/font&gt;" style="shape=partialRectangle;html=1;whiteSpace=wrap;connectable=0;strokeColor=inherit;overflow=hidden;fillColor=none;top=0;left=0;bottom=0;right=0;pointerEvents=1;fontSize=12;align=left;spacingLeft=5;" vertex="1" parent="a1HbDaqU0d2U6ycPriEB-30">
          <mxGeometry width="215" height="30" as="geometry">
            <mxRectangle width="215" height="30" as="alternateBounds" />
          </mxGeometry>
        </mxCell>
        <mxCell id="a1HbDaqU0d2U6ycPriEB-32" style="edgeStyle=orthogonalEdgeStyle;rounded=0;orthogonalLoop=1;jettySize=auto;html=1;" edge="1" parent="1" source="a1HbDaqU0d2U6ycPriEB-13">
          <mxGeometry relative="1" as="geometry">
            <mxPoint x="-40" y="250" as="targetPoint" />
          </mxGeometry>
        </mxCell>
        <mxCell id="a1HbDaqU0d2U6ycPriEB-34" value="" style="shape=table;startSize=0;container=1;collapsible=0;childLayout=tableLayout;fontSize=11;fillColor=#008a00;strokeColor=#005700;fontColor=#ffffff;" vertex="1" parent="1">
          <mxGeometry x="-330" y="320" width="235" height="120" as="geometry" />
        </mxCell>
        <mxCell id="a1HbDaqU0d2U6ycPriEB-35" value="" style="shape=tableRow;horizontal=0;startSize=0;swimlaneHead=0;swimlaneBody=0;strokeColor=inherit;top=0;left=0;bottom=0;right=0;collapsible=0;dropTarget=0;fillColor=none;points=[[0,0.5],[1,0.5]];portConstraint=eastwest;fontSize=16;" vertex="1" parent="a1HbDaqU0d2U6ycPriEB-34">
          <mxGeometry width="235" height="30" as="geometry" />
        </mxCell>
        <mxCell id="a1HbDaqU0d2U6ycPriEB-36" value="&lt;b&gt;&lt;font color=&quot;#ffffff&quot;&gt;PROCEDIMENTO FASES DA CULTURA&lt;/font&gt;&lt;/b&gt;" style="shape=partialRectangle;html=1;whiteSpace=wrap;connectable=0;strokeColor=inherit;overflow=hidden;fillColor=none;top=0;left=0;bottom=0;right=0;pointerEvents=1;fontSize=12;align=left;spacingLeft=5;" vertex="1" parent="a1HbDaqU0d2U6ycPriEB-35">
          <mxGeometry width="235" height="30" as="geometry">
            <mxRectangle width="235" height="30" as="alternateBounds" />
          </mxGeometry>
        </mxCell>
        <mxCell id="a1HbDaqU0d2U6ycPriEB-37" value="" style="shape=tableRow;horizontal=0;startSize=0;swimlaneHead=0;swimlaneBody=0;strokeColor=inherit;top=0;left=0;bottom=0;right=0;collapsible=0;dropTarget=0;fillColor=none;points=[[0,0.5],[1,0.5]];portConstraint=eastwest;fontSize=16;" vertex="1" parent="a1HbDaqU0d2U6ycPriEB-34">
          <mxGeometry y="30" width="235" height="30" as="geometry" />
        </mxCell>
        <mxCell id="a1HbDaqU0d2U6ycPriEB-38" value="&lt;b&gt;&lt;font color=&quot;#ffffff&quot;&gt;FEEDBACK SOBRE TRATAMENTO&lt;/font&gt;&lt;/b&gt;" style="shape=partialRectangle;html=1;whiteSpace=wrap;connectable=0;strokeColor=inherit;overflow=hidden;fillColor=none;top=0;left=0;bottom=0;right=0;pointerEvents=1;fontSize=12;align=left;spacingLeft=5;" vertex="1" parent="a1HbDaqU0d2U6ycPriEB-37">
          <mxGeometry width="235" height="30" as="geometry">
            <mxRectangle width="235" height="30" as="alternateBounds" />
          </mxGeometry>
        </mxCell>
        <mxCell id="a1HbDaqU0d2U6ycPriEB-39" value="" style="shape=tableRow;horizontal=0;startSize=0;swimlaneHead=0;swimlaneBody=0;strokeColor=inherit;top=0;left=0;bottom=0;right=0;collapsible=0;dropTarget=0;fillColor=none;points=[[0,0.5],[1,0.5]];portConstraint=eastwest;fontSize=16;" vertex="1" parent="a1HbDaqU0d2U6ycPriEB-34">
          <mxGeometry y="60" width="235" height="30" as="geometry" />
        </mxCell>
        <mxCell id="a1HbDaqU0d2U6ycPriEB-40" value="&lt;font color=&quot;#ffffff&quot;&gt;&lt;b&gt;CONSULTA DE ANALISES E LAUDOS&lt;/b&gt;&lt;/font&gt;" style="shape=partialRectangle;html=1;whiteSpace=wrap;connectable=0;strokeColor=inherit;overflow=hidden;fillColor=none;top=0;left=0;bottom=0;right=0;pointerEvents=1;fontSize=12;align=left;spacingLeft=5;" vertex="1" parent="a1HbDaqU0d2U6ycPriEB-39">
          <mxGeometry width="235" height="30" as="geometry">
            <mxRectangle width="235" height="30" as="alternateBounds" />
          </mxGeometry>
        </mxCell>
        <mxCell id="a1HbDaqU0d2U6ycPriEB-41" style="shape=tableRow;horizontal=0;startSize=0;swimlaneHead=0;swimlaneBody=0;strokeColor=inherit;top=0;left=0;bottom=0;right=0;collapsible=0;dropTarget=0;fillColor=none;points=[[0,0.5],[1,0.5]];portConstraint=eastwest;fontSize=16;" vertex="1" parent="a1HbDaqU0d2U6ycPriEB-34">
          <mxGeometry y="90" width="235" height="30" as="geometry" />
        </mxCell>
        <mxCell id="a1HbDaqU0d2U6ycPriEB-42" value="&lt;font color=&quot;#ffffff&quot;&gt;&lt;b&gt;MANUTENÇÃO&lt;/b&gt;&lt;/font&gt;" style="shape=partialRectangle;html=1;whiteSpace=wrap;connectable=0;strokeColor=inherit;overflow=hidden;fillColor=none;top=0;left=0;bottom=0;right=0;pointerEvents=1;fontSize=12;align=left;spacingLeft=5;" vertex="1" parent="a1HbDaqU0d2U6ycPriEB-41">
          <mxGeometry width="235" height="30" as="geometry">
            <mxRectangle width="235" height="30" as="alternateBounds" />
          </mxGeometry>
        </mxCell>
        <mxCell id="a1HbDaqU0d2U6ycPriEB-43" value="&lt;font color=&quot;#ffffff&quot;&gt;&lt;b&gt;NOVO PROJETO&lt;/b&gt;&lt;/font&gt;" style="shape=partialRectangle;html=1;whiteSpace=wrap;connectable=0;strokeColor=#005700;overflow=hidden;fillColor=#008a00;top=0;left=0;bottom=0;right=0;pointerEvents=1;fontSize=12;align=left;spacingLeft=5;fontColor=#ffffff;" vertex="1" parent="1">
          <mxGeometry x="-330" y="440" width="235" height="30" as="geometry">
            <mxRectangle width="235" height="30" as="alternateBounds" />
          </mxGeometry>
        </mxCell>
        <mxCell id="a1HbDaqU0d2U6ycPriEB-44" style="edgeStyle=orthogonalEdgeStyle;rounded=0;orthogonalLoop=1;jettySize=auto;html=1;" edge="1" parent="1" source="a1HbDaqU0d2U6ycPriEB-15">
          <mxGeometry relative="1" as="geometry">
            <mxPoint x="-80" y="405" as="targetPoint" />
          </mxGeometry>
        </mxCell>
        <mxCell id="a1HbDaqU0d2U6ycPriEB-45" value="" style="shape=table;startSize=0;container=1;collapsible=0;childLayout=tableLayout;fontSize=11;fillColor=#008a00;strokeColor=#005700;fontColor=#ffffff;" vertex="1" parent="1">
          <mxGeometry x="-140" y="520" width="215" height="90" as="geometry" />
        </mxCell>
        <mxCell id="a1HbDaqU0d2U6ycPriEB-46" value="" style="shape=tableRow;horizontal=0;startSize=0;swimlaneHead=0;swimlaneBody=0;strokeColor=inherit;top=0;left=0;bottom=0;right=0;collapsible=0;dropTarget=0;fillColor=none;points=[[0,0.5],[1,0.5]];portConstraint=eastwest;fontSize=16;" vertex="1" parent="a1HbDaqU0d2U6ycPriEB-45">
          <mxGeometry width="215" height="30" as="geometry" />
        </mxCell>
        <mxCell id="a1HbDaqU0d2U6ycPriEB-47" value="&lt;b&gt;&lt;font color=&quot;#ffffff&quot;&gt;CONSULTA&amp;nbsp; E GERAR BOLETO&lt;/font&gt;&lt;/b&gt;" style="shape=partialRectangle;html=1;whiteSpace=wrap;connectable=0;strokeColor=inherit;overflow=hidden;fillColor=none;top=0;left=0;bottom=0;right=0;pointerEvents=1;fontSize=12;align=left;spacingLeft=5;" vertex="1" parent="a1HbDaqU0d2U6ycPriEB-46">
          <mxGeometry width="215" height="30" as="geometry">
            <mxRectangle width="215" height="30" as="alternateBounds" />
          </mxGeometry>
        </mxCell>
        <mxCell id="a1HbDaqU0d2U6ycPriEB-48" value="" style="shape=tableRow;horizontal=0;startSize=0;swimlaneHead=0;swimlaneBody=0;strokeColor=inherit;top=0;left=0;bottom=0;right=0;collapsible=0;dropTarget=0;fillColor=none;points=[[0,0.5],[1,0.5]];portConstraint=eastwest;fontSize=16;" vertex="1" parent="a1HbDaqU0d2U6ycPriEB-45">
          <mxGeometry y="30" width="215" height="30" as="geometry" />
        </mxCell>
        <mxCell id="a1HbDaqU0d2U6ycPriEB-49" value="&lt;b&gt;&lt;font color=&quot;#ffffff&quot;&gt;PORTIFÓLIO DE PRODUTOS&lt;/font&gt;&lt;/b&gt;" style="shape=partialRectangle;html=1;whiteSpace=wrap;connectable=0;strokeColor=inherit;overflow=hidden;fillColor=none;top=0;left=0;bottom=0;right=0;pointerEvents=1;fontSize=12;align=left;spacingLeft=5;" vertex="1" parent="a1HbDaqU0d2U6ycPriEB-48">
          <mxGeometry width="215" height="30" as="geometry">
            <mxRectangle width="215" height="30" as="alternateBounds" />
          </mxGeometry>
        </mxCell>
        <mxCell id="a1HbDaqU0d2U6ycPriEB-50" value="" style="shape=tableRow;horizontal=0;startSize=0;swimlaneHead=0;swimlaneBody=0;strokeColor=inherit;top=0;left=0;bottom=0;right=0;collapsible=0;dropTarget=0;fillColor=none;points=[[0,0.5],[1,0.5]];portConstraint=eastwest;fontSize=16;" vertex="1" parent="a1HbDaqU0d2U6ycPriEB-45">
          <mxGeometry y="60" width="215" height="30" as="geometry" />
        </mxCell>
        <mxCell id="a1HbDaqU0d2U6ycPriEB-51" value="&lt;font color=&quot;#ffffff&quot;&gt;&lt;b&gt;NOVAS NEGOCIAÇÕES&lt;/b&gt;&lt;/font&gt;" style="shape=partialRectangle;html=1;whiteSpace=wrap;connectable=0;strokeColor=inherit;overflow=hidden;fillColor=none;top=0;left=0;bottom=0;right=0;pointerEvents=1;fontSize=12;align=left;spacingLeft=5;" vertex="1" parent="a1HbDaqU0d2U6ycPriEB-50">
          <mxGeometry width="215" height="30" as="geometry">
            <mxRectangle width="215" height="30" as="alternateBounds" />
          </mxGeometry>
        </mxCell>
        <mxCell id="a1HbDaqU0d2U6ycPriEB-54" style="edgeStyle=orthogonalEdgeStyle;rounded=0;orthogonalLoop=1;jettySize=auto;html=1;" edge="1" parent="1" source="a1HbDaqU0d2U6ycPriEB-17">
          <mxGeometry relative="1" as="geometry">
            <mxPoint x="-40" y="510" as="targetPoint" />
          </mxGeometry>
        </mxCell>
      </root>
    </mxGraphModel>
  </diagram>
</mxfile>
